<?xml version="1.0" encoding="utf-8"?>
<!-- Generator: Adobe Illustrator 26.3.1, SVG Export Plug-In . SVG Version: 6.00 Build 0)  -->
<svg version="1.1" id="Layer_1" xmlns="http://www.w3.org/2000/svg" xmlns:xlink="http://www.w3.org/1999/xlink" x="0px" y="0px"
	 viewBox="0 0 761.9 586.1" style="enable-background:new 0 0 761.9 586.1;" xml:space="preserve">
<style type="text/css">
	.st0{fill:#F2F3F4;}
	.st1{fill:#F18749;}
</style>
<rect class="st0" width="761.9" height="586.1"/>
<path d="M4.8,559.5l290.8-0.9c96.9-0.3,193.8-0.6,290.8-0.9c54-0.2,108.1-0.3,162.1,2.8c6.4,0.4,6.4-9.6,0-10
	c-48.1-2.8-96.3-2.9-144.4-2.8c-48.4,0.1-96.9,0.3-145.3,0.5L168,549L4.8,549.5C-1.6,549.5-1.6,559.5,4.8,559.5L4.8,559.5z"/>
<g>
	<path class="st1" d="M494.8,112.1c-10.5,6.5-21.2,13-29.8,21.8c-23.5,24-28.3,63.2-14.3,93.7s44.9,51.8,78.1,57.4
		c22,3.8,47.3,0,61.5-17.2c7.3-8.8,10.8-20.1,13.8-31.2c7.4-27.2,12.6-54.9,15.7-82.8c2-18.2,11.8-60.8,2.5-77.3
		C603.7,43.2,516.5,98.9,494.8,112.1z"/>
	<path d="M617.4,424.3c-0.3-0.7-0.5-1.4-0.8-2.1c2.3-1.3,4.3-3.2,5.8-5.5c5.6-9.3,5.9-20.7,0.9-30.3c-3.6-6.8-13.3-18-21.1-10.7
		c-3.1,3.9-3.3,9.1-4,13.9c-0.5-0.4-1-0.8-1.5-1.2c-4.3-3.1-9.5-4.3-14.7-4.8c-7.2-0.8-14.3-1.9-21.5-2.3c0.5,0,1,0.1,1.5,0.2
		c-7.2-0.9-14.6-1.2-21.9-1.4c-14.5-0.5-29,2.2-43.5,2.1c-2.6-4.4-6-15.2-11.5-27.9c-5.8-13.5-13.8-26.2-24.4-36.4
		c-8.6-7.8-18.8-13.5-29.1-18.8c-8.1-4.1-16.5-7.7-25.7-8.2c-14-0.8-28,1-42,1.7c-20.9,1.2-41.8,2.5-62.7,4.5
		c-23.2,1.8-46.6,3.3-69.3,8.9c-10.5,3-21.8,5.5-30.4,12.6c-14.1,15.4-20.7,36.1-31.8,53.6c-8.8,14.4-11.9,20.1-18,24.1
		c-8.9,1.5-29.4,7.5-41.1,13.6c-4.6,2-9.2,4.1-12.7,7.9c-3.9,3.8-4.5,9.4-3.4,14.5c0.8,6,2,11.9,3.3,17.7c0.1,0.6,0.2,1.1,0.3,1.7
		c-5.2,0.4-10.3,0.5-15.5,0.2c-2.6,0-5.6-0.8-7.7,1c-2.3,2.4-2.2,6.1-2.5,9.2c-0.1,4.5-0.6,9.2,0.5,13.6c1.7,5.5,8.6,5.5,13.3,5.6
		c5.5,0,10.9-0.3,16.3-1c0.2,2,0.5,4,0.7,6.1c0.1-2.1,0.2-4.2,0.3-6.2c1.4-0.2,2.7-0.5,4.1-1c-1.3-0.2-2.6-0.3-4-0.4
		c0.6-11.6,0.6-23.2-0.2-34.8c0-5.7-1-12.8,0.1-17.7c0.3-0.1,1.1-1.3,1.8-1.6c0.4-0.3,0.4-0.3-0.1,0.1c-0.7,0.5,0,0,0.4-0.2
		c0.5-0.3,0.9-0.6,1.4-0.8c7.3-3,23.5-7.7,34.9-9.5c4.4-1,8.9-0.4,16.6-2.7c8.3-3.1,14.5-9.9,20-16.7c7.4-9.2,14.2-18.7,20.6-28.6
		c5.6-8.9,10.9-18.1,17.2-26.6c0.5-0.6,1.1-1.1,1.6-1.7c0.6-0.4,1.3-0.7,1.9-1c27.8-8.8,45.1-10,73.2-11.6
		c-1.4,16.5-2.5,33-4.2,49.5c0,0,0.1-0.6,0.1-0.9v0.1c-0.2,2.4-0.7,4.7-1.7,6.9c-1,1.2-2.5,1.8-4.1,2.5c-7.6,2.8-11.8,3.4-19.5,3.1
		c-16.9-1.1-33.8-0.7-50.6,1.2c-3.4,0.4-6.8,0.8-10.2,1.2c16.1,2.8,31.1,4.2,47.8,6.3c0.6,0.1,2.2,0.2,1.6,0.2c-0.4-0.1-0.4,0,0,0
		c6,0.9,12,2.1,18.2,2c9.5-0.5,21.4-2.3,26.5-11.3c3-6.8,1.6-14.6,1.3-21.8c-1.1-13-2.6-26-4.7-38.9c3.4-0.2,7-0.4,10.8-0.6
		c10.5-0.7,20.9-1.5,31.4-2.4c5.4,48.8,4.5,98.2,14.4,144.9c1.2-28.3,3.3-56.8,0.2-85c-2-20.5-7.5-40.5-14.4-59.9
		c11.4-1,22.8-2,34.3-3c2.8-0.2,5.5-0.5,8.2-0.7c2.7,23.9,2.6,48.7,9.8,71.8c10.6,18.1,37.3,9.7,54.3,7.8c5.4-0.9,10.8-1.9,16.2-3
		c-0.3,6.4-1,14.3-1.7,18.9c-0.1,1.8-1.5,4.6,1.3,6.3c7.4,3.3,14.4-4.3,16.9-10.6c1.2-3.1,1.6-6.5,1.1-9.8
		c4.8,5.8,11.2,9.6,20.7,9.2c19.4-1.1,57.4-4.1,65.1-3.2c6.6,0.9,11.2,1,19.9,3c0.1,0,0.2,0.1,0.2,0.1c5.5,5.8,5.1,8.6,10.8,24.2
		c0.6,1.8,1.2,3.5,1.8,5.3c-3.4,1-0.8,0.3-16.7,1.7c-2.7,0.3-6.5,0.1-5.4,0.4c-1.1-0.1-2.2-0.2-3.3-0.1c-6.1-0.3-2.1,0.3-11.9-1.7
		c-14.3-3.3-27.9-9.5-42.6-11.5c-37.3-7.3-50.9,29.5-61.1,37.1c-12.4,9-17.3,6.2-41.4,5.7c-47.1-1-94.3,0.3-141.4,1.8
		c-10.4,0.2-20.9,0.4-31.3-0.8c-6.3-1.1-12.5-3-18.4-5.5c-0.2-0.1-0.4-0.2-0.7-0.3c-16.7-7.6-33.3-17-52-17.5
		c-8.3-0.2-16.9,0.3-24.4,4c-6.9,3.8-12.4,9.7-17.3,15.8c-2.4,2.9-4.4,6.3-6.9,9c-0.1-0.3-0.2-0.7-0.3-1c0,0.4,0,0.9,0,1.3
		c-1.4,1.5-3,2.8-4.9,3.8c-1.6,0.8-3.2,1.4-4.9,1.9c1.4-0.1,2.9-0.4,4.3-0.7c1.9-0.5,3.8-1.3,5.4-2.4c0,12.2,0.1,25,5.9,36
		c7.9,14.6,26.2,18.2,39.3,8.3c8.2-6.2,12.1-16.4,14.3-26.1c1.8-7.7,3.1-15.7,2.5-23.7c-6,18.1-14,42.7-31.2,44.7
		c-21.3,2.4-25.4-22.3-29.9-39.8c1.3-0.9,2.5-1.9,3.6-3c14.4-14.4,24.7-20.6,40.8-16.8c19.6,2.9,34,17.2,54.3,26.8
		c20.1,9.7,43.1,9.4,64.9,10.3c36.9,1.3,73.7,1.4,110.6,0.4c28.1-0.8,58,6.2,79.7-16.7c6.8-6.9,11.8-15.4,19.1-21.8l0.1-0.1
		c1.5-0.5,3-1,4.6-1.3c0.4-0.1,0.9-0.1,1.3-0.2l0,0h0.1c0.7-0.1,1.5-0.2,2.2-0.3c0.8,0,2.4-0.1,3.9,0c1.6,0.3,4.4,0.8,5.9,1.3
		c13.2,3.1,26.2,8.8,39.6,11.5c1.6,27.5-15.4,60.1-36.9,69.8c-9.4,4.7-23.1,0.3-29.9-11.9c-7-11.2-9.4-28.3-11.5-43.9
		c-1.8,19.4-3.8,41.5,8.5,58c20.4,26,52.4,10.3,65-14.8c6.6-12.8,10.4-27.3,9.8-41.7c-0.4-5.1-1.4-10.2-3.1-15.1
		c5.5,1.1,11.2,1.4,16.8,0.9c8.2-1,49.5-2.2,53.3-20.3c0.9-4.1,0.4-8.4-1.5-12.2C619.4,429.9,621.2,434.6,617.4,424.3z M79.5,474.4
		c-0.5-0.1-0.4-1.6-0.4-3.7c0-4.4-0.4-11-0.4-14.2c5.4,0,13.1-1.7,19.7-3.9c1.8,8.7,3,17.2,4.1,25.9
		C94.8,477.8,86.9,477.1,79.5,474.4z M420.8,391.1c-5.8,0-11.3,0.2-16.5-1.5c-3.8-1.3-6.6-3.3-7.4-6.8
		c-6.1-21.4-10.6-43.3-17.7-64.4c11.9-1,21.5-1.9,28.9-0.5c5.9,1.6,17.7,7,29.5,15.3c1.9,1.7,3.8,3.4,5.5,5.3
		c7.4,8.2,3.4,3.3,8.8,10.8c10,16.5,9.9,18.7,16.1,34.4c0.8,2.3,1.8,4.5,2.8,6.7C454.1,389.8,437.5,390.8,420.8,391.1L420.8,391.1z
		 M466.1,414.3c-2,1.2-2.5,1.7-4.9,1.8c0-7.1-0.7-14.2-2-21.3c4.2-0.9,8.4-1.8,12.7-2.6c0.4,0.7,0.8,1.4,1.2,2.1
		C474.8,402.1,471.8,410.1,466.1,414.3z M598.3,389.7c4.3-10.1,7-17.3,14.8-7.1c7.4,9.8,11.7,24,5,36.3c-0.5,0.9-1.1,1.6-1.8,2.4
		C610.5,406.3,607.5,397.1,598.3,389.7z"/>
	<path d="M211.4,416.2c9.4,3.1,19.5,3.1,28.9,0.1C230.6,416.6,221,416.6,211.4,416.2z"/>
	<path d="M389.5,419.9c6.2,1,12.5,1,18.6,0C401.9,418.9,395.6,418.9,389.5,419.9z"/>
	<path d="M507,474.3c-1.3,0.9-2.6,1.9-3.6,3.1c2-1.1,4.1-2.5,6.4-2.1c2.9,0.3,4.9,2.9,6.2,5.4c2.2,3.7,2.4,9.8,1.7,13.4
		c-1.8,8.1-9.6,16.6-14,4.6c-2.5-4.9-4.7-14.4-2.4-21.3c-3.1,5.9-3.9,12.6-2.3,19c1,4.8,2.2,10.5,7,13c9.3,4.2,16.9-7,17.4-15.2
		C524.6,485.3,518.1,469.5,507,474.3z"/>
	<path d="M154.6,476.2c-0.6-0.2-1.2-0.3-1.8-0.3c1,0.3,1.9,0.9,2.5,1.7c2.9,4.4,2.8,10.2-0.1,14.5c-2.8,4.5-8.4,3.5-9.3-1.8
		c-2.2-5.4-0.8-11.5,3.4-15.5c-5.3,2.9-8.2,8.9-7,14.9c0.3,2.5,0.6,5.2,2.4,7.1c3.1,3.5,8.5,3.9,12,0.7c0.8-0.7,1.4-1.5,1.9-2.5
		C162.5,489.4,161.1,479.6,154.6,476.2z"/>
	<path class="st1" d="M444,375.2c1.1,3.6-36.8,10.8-39.9,11.6c4.4-12.5-0.6-39.3,11-48.7C428.6,327.1,441.2,366.4,444,375.2z"/>
	<path class="st1" d="M113.7,211c-11.6,10.9-4.8,32.8,9.8,39.1c14.6,6.3,32.2-0.2,43.5-11.5s17.6-26.4,23.6-41.2
		c3.1-7.6-0.5-16.3-8.1-19.4c-4.6-1.9-9.8-1.3-13.9,1.4C147.8,193.4,123.8,201.6,113.7,211z"/>
	<path d="M168.1,197.2c-1.5-12.9-11.3-25-25.1-24.2c-7.3,0.2-14.1,2.5-20.7,5.5c-1.9,0.3-3.7,0.7-5.5,1.3c-4.2,1.5-8.1,3.7-11.5,6.5
		c3.6-1.8,7.3-3.5,11.1-4.9c-1.5,0.8-3,1.6-4.5,2.4c6.9-2.8,14-5,21.2-6.6c2.4-0.4,4.8-0.7,7.2-0.6c3.1,0.1,5.3,0,8.1,1
		c8.8,3,12.9,12.2,14.1,18.8c1,5.4-1.5,13.4-2.7,16.6c-3,6.3-5.6,10.7-9.9,14.6c-2.2,2-6.6,3.8-11.5,5.3c-7.2,2.5-12.1,2.7-20.2,2.3
		c-6.6-0.5-17-5.7-21.3-14.3c-2.3-4.2-2.6-9.3-1.8-14c0.5-4.5,1.4-8.9,2.5-13.2c-2.5,5.9-4.2,12.1-5.2,18.5
		c-0.4,5.7,1.3,11.4,4.9,15.8c4.9,6.7,12.3,11.1,20.5,12.2c11.2,1.4,22.6-1.4,32.6-6.5C160.9,227.4,169.3,209.5,168.1,197.2z"/>
	<path d="M599.7,551.7l36.3-50.3c11.8-16.3,24-32.5,35.4-49.1c9.9-14.5,19.1-31.7,16.9-49.9c-2.2-17.9-14.4-32.8-26.9-44.9
		c-24.6-23.9-55.9-39.1-84.4-57.7c-25.5-16.7-51.1-39.1-61.2-68.4c-2.6-7.2-4-14.8-4.2-22.5c-0.1-3.6,0.4-7.3,2.9-9.8
		c2.3-2.2,5.7-3.3,8.9-4.3c18.7-5.9,37.9-10.1,57.4-12.4c4.8-0.6,9.7-1,14.5-1.4c2.5-0.1,4.5-2.1,4.6-4.6c0-2.3-2.1-4.7-4.6-4.6
		c-20,1.4-39.9,4.7-59.3,9.8c-4.8,1.3-9.6,2.6-14.3,4.1c-3.9,1.2-7.9,2.5-11.3,4.9c-3.8,2.7-6.5,6.7-7.4,11.3
		c-0.7,4.4-0.7,8.8-0.1,13.1c3.6,33,26.2,59.8,51.5,79.6c26.9,21,58.3,35.2,85.4,56.1c13.1,10.1,26.1,22.1,34.1,36.7
		c4.2,7.3,6.1,15.7,5.4,24.1c-0.7,8.4-4.2,16.5-8.2,23.8c-4.5,8.1-9.9,15.6-15.3,23.1l-18.3,25.3l-36.6,50.6l-9.1,12.6
		c-1.4,2-0.3,5.1,1.6,6.2C595.7,554.7,598.2,553.7,599.7,551.7L599.7,551.7z"/>
	<path d="M593,316.7c-15.1,1.2-30.3,0.9-45.3-1c-0.5-0.1-0.9-0.1-1.4-0.2c0.9,0.1-0.6-0.1-0.7-0.1c-0.9-0.1-1.9-0.3-2.8-0.4
		c-1.9-0.3-3.7-0.6-5.6-0.9c-3.7-0.7-7.4-1.5-11.1-2.4c-7.3-1.8-14.5-4-21.5-6.7c-0.9-0.3-1.8-0.7-2.6-1c-0.4-0.2-0.9-0.4-1.3-0.5
		c0,0-1.4-0.6-0.6-0.3c-1.7-0.7-3.4-1.5-5.2-2.3c-3.2-1.5-6.4-3.1-9.5-4.8c-5.7-3.2-11.2-6.7-16.5-10.5c-0.7-0.5-1.3-1-2-1.5
		c-0.1-0.1-1.1-0.9-0.4-0.3c-0.3-0.3-0.6-0.5-1-0.8c-1.3-1-2.5-2-3.8-3.1c-2.5-2.1-4.9-4.3-7.3-6.6c-4.7-4.5-9-9.4-13.1-14.5
		c-0.8-1.1,0.5,0.7-0.3-0.4c-0.2-0.3-0.5-0.6-0.7-1c-0.5-0.6-1-1.3-1.4-2c-0.9-1.3-1.9-2.6-2.8-4c-1.8-2.7-3.5-5.5-5.1-8.3
		s-3.1-5.7-4.4-8.6c-0.3-0.7-0.7-1.5-1-2.2c-0.2-0.4-0.3-0.7-0.5-1.1c-0.5-1.2,0.3,0.8-0.2-0.4c-0.6-1.5-1.2-3-1.8-4.5
		c-2.1-5.8-3.8-11.8-4.9-17.8c-0.3-1.5-0.5-3-0.7-4.4c0-0.2-0.2-1.4,0-0.3c0-0.2-0.1-0.5-0.1-0.7c-0.1-0.9-0.2-1.7-0.3-2.6
		c-0.3-3-0.5-6-0.6-9c-0.1-6,0.2-12,1-18c0.2-1.3-0.1,1,0-0.3c0.1-0.4,0.1-0.7,0.2-1.1c0.1-0.7,0.2-1.5,0.4-2.2
		c0.2-1.5,0.5-3,0.8-4.4c0.6-2.9,1.3-5.9,2.1-8.8c0.8-2.9,1.7-5.8,2.8-8.6c0.5-1.4,1-2.8,1.6-4.2c0.2-0.6,0.5-1.2,0.7-1.7
		c-0.4,1,0.1-0.1,0.1-0.3c0.2-0.5,0.4-0.9,0.6-1.4c2.4-5.5,5.3-10.8,8.5-15.9c1.6-2.5,3.3-5,5.1-7.4c0.4-0.6,0.9-1.2,1.4-1.8
		c-0.7,0.9,0.1-0.1,0.2-0.3c0.2-0.3,0.5-0.6,0.7-0.9c0.9-1.2,1.9-2.3,2.9-3.5c3.9-4.5,8.2-8.8,12.8-12.6c1.1-0.9,2.2-1.8,3.4-2.7
		c0.6-0.5-0.9,0.6,0.1-0.1c0.3-0.2,0.6-0.5,0.9-0.7c0.7-0.5,1.4-1,2.1-1.5c2.7-1.9,5.4-3.6,8.2-5.3c3.3-1.9,6.6-3.6,10-5.2
		c1.6-0.7,3.1-1.4,4.7-2.1c0.2-0.1,0.4-0.2,0.6-0.3c0.4-0.2,0.9-0.4,1.3-0.5c1-0.4,2-0.8,3.1-1.2c14.2-5.4,29-8.8,43.9-11.3
		c16.2-2.8,32.1-4.5,48.8-5.8c16.7-1.2,33.4-1.7,50.1-1.9c7.4-0.1,15-0.3,22.4,0.3c0.8,0.1,1.5,0.1,2.3,0.2c0.2,0,0.9,0.2-0.1,0
		c0.4,0.1,0.8,0.1,1.1,0.2c1.6,0.3,3.2,0.6,4.8,1.1c0.6,0.2,1.3,0.4,1.9,0.7c0.7,0.2-1-0.5,0.1,0c0.3,0.2,0.7,0.3,1,0.5
		c0.6,0.3,1.3,0.7,1.9,1.1c0.3,0.2,0.6,0.4,0.9,0.6c-0.9-0.7,0.3,0.3,0.4,0.4c0.5,0.5,0.9,0.9,1.4,1.4c0.2,0.2,0.6,0.9,0.1,0.1
		c0.2,0.3,0.5,0.7,0.7,1c0.2,0.4,0.4,0.7,0.6,1.1c0,0.1,0.6,1.4,0.3,0.5c0.4,0.9,0.7,1.9,0.9,2.9c0.2,0.8,0.3,1.6,0.5,2.4
		c0,0.2,0.2,1.2,0.1,0.3c0.1,0.4,0.1,0.9,0.1,1.3c0.2,1.9,0.2,3.9,0.3,5.8c0.2,8,0.2,15.9,0,23.9c-0.4,15.9-1.7,31.8-3.8,47.6
		c-0.1,0.5-0.1,0.8-0.2,1.7c-0.1,1-0.3,2-0.4,3c-0.3,2.1-0.6,4.3-1,6.4c-0.6,3.9-1.3,7.9-2,11.8c-1.5,7.8-3.1,15.6-5,23.4
		c-3.7,15.5-8.3,30.8-13.6,45.8c-5,14.2-9.7,27.2-17.9,40c-1.8,2.9-3.8,5.6-5.9,8.1c-2.2,2.6-4.7,5.1-7.3,7.4
		c-0.7,0.6-1.3,1.1-2,1.7c-1.1,0.9,0.7-0.5-0.5,0.3c-0.3,0.3-0.7,0.5-1,0.8c-1.4,1-2.9,2-4.3,2.9c-1.5,0.9-3,1.7-4.6,2.5
		c-0.8,0.4-1.6,0.8-2.3,1.1c-0.4,0.2-0.8,0.4-1.2,0.5c-1,0.4,0.4-0.1-0.5,0.2c-3.1,1.2-6.3,2.3-9.5,3.1c-1.7,0.4-3.4,0.8-5.1,1
		c-0.4,0.1-0.9,0.1-1.3,0.2c1-0.1-0.4,0-0.5,0.1c-0.9,0.1-1.7,0.2-2.6,0.2c-2.4,0.2-4.7,2-4.6,4.6c0.1,2.3,2,4.8,4.6,4.6
		c15.2-1.1,29.6-7,41.2-16.8c11.5-9.6,19.2-23,25-36.6c12.9-29.9,21.9-61.6,27.8-93.6c6-32.2,8.6-64.9,7.6-97.7
		c-0.3-7.7-1.5-15.7-7.3-21.3c-5.1-5-12.2-6.8-19.1-7.6c-7.4-0.8-14.9-0.5-22.3-0.5c-8.5,0-17.1,0.2-25.6,0.5
		c-17,0.6-34.1,1.7-51,3.7c-16.3,1.9-32.7,4.3-48.6,8.3c-15.3,3.8-30.4,9.2-44,17.1c-11.1,6.5-21,14.7-29.4,24.4
		c-16.7,19.5-27.4,43.4-30.6,68.9c-3.4,25.7,1.7,51.8,14.5,74.3c13.3,23.7,33.9,43.3,57.7,56.4c27.3,15.1,58.5,21.9,89.5,22.5
		c7.6,0.1,15.1-0.1,22.7-0.7c2.4-0.2,4.7-2,4.6-4.6C597.4,319,595.5,316.5,593,316.7L593,316.7z"/>
</g>
</svg>
